<svg width="16" height="16" xmlns="http://www.w3.org/2000/svg"><g opacity=".9"><path d="M15.708 1.538c.287-.404.252-.817-.072-1.19-.334-.383-.824-.45-1.274-.132-.287.202-.53.469-.78.719C11.742 2.77 9.907 4.61 7.947 6.574L2.427 1.037c-.25-.25-.49-.519-.766-.738C1.17-.09.652-.073.29.332c-.37.413-.353.864-.032 1.29.188.25.424.466.646.689C2.491 3.9 4.081 5.487 5.667 7.078c.273.274.53.562.833.884-.311.33-.571.62-.846.896C4.04 10.477 2.421 12.091.808 13.71c-.222.222-.46.442-.626.704-.258.407-.223.834.126 1.187.35.354.775.392 1.184.133.262-.166.482-.404.705-.626 4.32-4.317 8.64-8.637 12.958-12.958.194-.194.395-.389.553-.612z" opacity=".85"/><path d="M13.3 11.91c-.612-.61-1.2-1.249-1.847-1.82-.604-.532-1.45-.355-1.603.344-.071.324.051.818.276 1.056 1.295 1.37 2.645 2.688 3.984 4.017.136.135.308.256.486.32.648.234 1.319-.26 1.287-1.13-.103-.145-.272-.452-.505-.696-.679-.71-1.383-1.396-2.078-2.09z"/></g></svg>